#define arrow_r_single_width 6
#define arrow_r_single_height 13
static unsigned char arrow_r_single_bits[] = {
   0x00, 0x00, 0x00, 0x00, 0x06, 0x0c, 0x18, 0x0c, 0x06, 0x00, 0x00, 0x00,
   0x00 };
