#define arrow_r_width 13
#define arrow_r_height 13
static unsigned char arrow_r_bits[] = {
   0x00, 0x00, 0x00, 0x00, 0x00, 0x00, 0x00, 0x00, 0x26, 0x03, 0x4c, 0x06,
   0x98, 0x0c, 0x4c, 0x06, 0x26, 0x03, 0x00, 0x00, 0x00, 0x00, 0x00, 0x00,
   0x00, 0x00 };
