#define calender_width 8
#define calender_height 9
static unsigned char calender_bits[] = {
   0x22, 0x7f, 0x7f, 0x41, 0x55, 0x41, 0x55, 0x41, 0x7f };
