#define cloud_width 16
#define cloud_height 8
static unsigned char cloud_bits[] = {
   0x00, 0x00, 0xc0, 0x00, 0xe6, 0x01, 0x3f, 0x18, 0x9f, 0x3d, 0xde, 0x3f,
   0xc0, 0x3f, 0x80, 0x1f };
