#define full_width 8
#define full_height 8
static unsigned char full_bits[] = {
   0xe7, 0xc3, 0xbd, 0x24, 0x24, 0xbd, 0xc3, 0xe7 };
