#define rain_width 8
#define rain_height 8
static unsigned char rain_bits[] = {
   0x10, 0x10, 0x38, 0x38, 0x7c, 0x7c, 0x7c, 0x38 };
