#define side_width 7
#define side_height 13
static unsigned char side_bits[] = {
   0x7f, 0x7f, 0x7f, 0x7f, 0x7f, 0x7f, 0x7f, 0x7e, 0x7c, 0x78, 0x70, 0x60,
   0x40 };
