#define side_r_width 7
#define side_r_height 13
static unsigned char side_r_bits[] = {
   0x07, 0x0f, 0x1f, 0x3f, 0x7f, 0x7f, 0x7f, 0x7f, 0x7f, 0x7f, 0x7f, 0x7f,
   0x7f };
