#define Snow_width 9
#define Snow_height 8
static unsigned char Snow_bits[] = {
   0x92, 0x00, 0x54, 0x00, 0x38, 0x00, 0xfe, 0x00, 0x38, 0x00, 0x54, 0x00,
   0x92, 0x00, 0x00, 0x00 };
