#define snow_width 7
#define snow_height 8
static unsigned char snow_bits[] = {
   0x00, 0x49, 0x2a, 0x1c, 0x7f, 0x1c, 0x2a, 0x49 };
