#define sun_width 9
#define sun_height 9
static unsigned char sun_bits[] = {
   0x10, 0x00, 0x82, 0x00, 0x38, 0x00, 0x7c, 0x00, 0x7d, 0x01, 0x7c, 0x00,
   0x38, 0x00, 0x82, 0x00, 0x10, 0x00 };
